<?xml version="1.0" encoding="utf-8" standalone="no"?>
<!DOCTYPE svg PUBLIC "-//W3C//DTD SVG 1.1//EN"
  "http://www.w3.org/Graphics/SVG/1.1/DTD/svg11.dtd">
<svg xmlns:xlink="http://www.w3.org/1999/xlink" width="915.451985pt" height="311.065596pt" viewBox="0 0 915.451985 311.065596" xmlns="http://www.w3.org/2000/svg" version="1.1">
 <metadata>
  <rdf:RDF xmlns:dc="http://purl.org/dc/elements/1.1/" xmlns:cc="http://creativecommons.org/ns#" xmlns:rdf="http://www.w3.org/1999/02/22-rdf-syntax-ns#">
   <cc:Work>
    <dc:type rdf:resource="http://purl.org/dc/dcmitype/StillImage"/>
    <dc:date>2025-11-08T04:07:24.019825</dc:date>
    <dc:format>image/svg+xml</dc:format>
    <dc:creator>
     <cc:Agent>
      <dc:title>Matplotlib v3.10.7, https://matplotlib.org/</dc:title>
     </cc:Agent>
    </dc:creator>
   </cc:Work>
  </rdf:RDF>
 </metadata>
 <defs>
  <style type="text/css">*{stroke-linejoin: round; stroke-linecap: butt}</style>
 </defs>
 <g id="figure_1">
  <g id="patch_1">
   <path d="M 0 311.065596 
L 915.451985 311.065596 
L 915.451985 0 
L 0 0 
z
" style="fill: #ffffff"/>
  </g>
  <g id="axes_1">
   <g id="line2d_1">
    <path d="M 64.609196 44.2832 
L 903.616585 44.2832 
" clip-path="url(#pfc6b028c09)" style="fill: none; stroke: #000000; stroke-width: 2; stroke-linecap: square"/>
   </g>
   <g id="line2d_2">
    <path d="M 64.609196 90.637199 
L 903.616585 90.637199 
" clip-path="url(#pfc6b028c09)" style="fill: none; stroke: #000000; stroke-width: 2; stroke-linecap: square"/>
   </g>
   <g id="line2d_3">
    <path d="M 64.609196 136.991198 
L 903.616585 136.991198 
" clip-path="url(#pfc6b028c09)" style="fill: none; stroke: #000000; stroke-width: 2; stroke-linecap: square"/>
   </g>
   <g id="line2d_4">
    <path d="M 64.609196 183.345198 
L 903.616585 183.345198 
" clip-path="url(#pfc6b028c09)" style="fill: none; stroke: #000000; stroke-width: 2; stroke-linecap: square"/>
   </g>
   <g id="line2d_5">
    <path d="M 64.609196 229.699197 
L 903.616585 229.699197 
" clip-path="url(#pfc6b028c09)" style="fill: none; stroke: #000000; stroke-width: 2; stroke-linecap: square"/>
   </g>
   <g id="line2d_6">
    <path d="M 64.609196 276.053196 
L 903.616585 276.053196 
" clip-path="url(#pfc6b028c09)" style="fill: none; stroke: #000000; stroke-width: 2; stroke-linecap: square"/>
   </g>
   <g id="patch_2">
    <path d="M 59.973797 21.1062 
L -1098.876188 21.1062 
L -1098.876188 345.584196 
L 59.973797 345.584196 
z
" clip-path="url(#pfc6b028c09)" style="fill: #ffffff; stroke: #ffffff; stroke-width: 1.5; stroke-linejoin: miter"/>
   </g>
   <g id="line2d_7">
    <path d="M 228.702354 90.637199 
L 228.702354 44.2832 
" clip-path="url(#pfc6b028c09)" style="fill: none; stroke: #002d9c; stroke-width: 2; stroke-linecap: square"/>
   </g>
   <g id="line2d_8">
    <path d="M 275.056354 136.991198 
L 275.056354 90.637199 
" clip-path="url(#pfc6b028c09)" style="fill: none; stroke: #002d9c; stroke-width: 2; stroke-linecap: square"/>
   </g>
   <g id="line2d_9">
    <path d="M 321.410353 183.345198 
L 321.410353 136.991198 
" clip-path="url(#pfc6b028c09)" style="fill: none; stroke: #002d9c; stroke-width: 2; stroke-linecap: square"/>
   </g>
   <g id="line2d_10">
    <path d="M 367.764352 229.699197 
L 367.764352 183.345198 
" clip-path="url(#pfc6b028c09)" style="fill: none; stroke: #002d9c; stroke-width: 2; stroke-linecap: square"/>
   </g>
   <g id="line2d_11">
    <path d="M 414.118352 276.053196 
L 414.118352 229.699197 
" clip-path="url(#pfc6b028c09)" style="fill: none; stroke: #002d9c; stroke-width: 2; stroke-linecap: square"/>
   </g>
   <g id="line2d_12">
    <path d="M 460.472351 276.053196 
L 460.472351 44.2832 
" clip-path="url(#pfc6b028c09)" style="fill: none; stroke: #002d9c; stroke-width: 2; stroke-linecap: square"/>
   </g>
   <g id="line2d_13">
    <path d="M 599.534349 90.637199 
L 599.534349 44.2832 
" clip-path="url(#pfc6b028c09)" style="fill: none; stroke: #002d9c; stroke-width: 2; stroke-linecap: square"/>
   </g>
   <g id="line2d_14">
    <path d="M 645.888349 136.991198 
L 645.888349 90.637199 
" clip-path="url(#pfc6b028c09)" style="fill: none; stroke: #002d9c; stroke-width: 2; stroke-linecap: square"/>
   </g>
   <g id="line2d_15">
    <path d="M 692.242348 183.345198 
L 692.242348 136.991198 
" clip-path="url(#pfc6b028c09)" style="fill: none; stroke: #002d9c; stroke-width: 2; stroke-linecap: square"/>
   </g>
   <g id="line2d_16">
    <path d="M 738.596348 229.699197 
L 738.596348 183.345198 
" clip-path="url(#pfc6b028c09)" style="fill: none; stroke: #002d9c; stroke-width: 2; stroke-linecap: square"/>
   </g>
   <g id="line2d_17">
    <path d="M 784.950347 276.053196 
L 784.950347 229.699197 
" clip-path="url(#pfc6b028c09)" style="fill: none; stroke: #002d9c; stroke-width: 2; stroke-linecap: square"/>
   </g>
   <g id="line2d_18">
    <path d="M 831.304346 276.053196 
L 831.304346 44.2832 
" clip-path="url(#pfc6b028c09)" style="fill: none; stroke: #002d9c; stroke-width: 2; stroke-linecap: square"/>
   </g>
   <g id="patch_3">
    <path d="M 88.140804 59.348249 
L 137.493907 59.348249 
L 137.493907 29.21815 
L 88.140804 29.21815 
z
" clip-path="url(#pfc6b028c09)" style="fill: #9f1853; stroke: #9f1853; stroke-width: 1.5; stroke-linejoin: miter"/>
   </g>
   <g id="patch_4">
    <path d="M 88.140804 105.702249 
L 137.493907 105.702249 
L 137.493907 75.572149 
L 88.140804 75.572149 
z
" clip-path="url(#pfc6b028c09)" style="fill: #9f1853; stroke: #9f1853; stroke-width: 1.5; stroke-linejoin: miter"/>
   </g>
   <g id="patch_5">
    <path d="M 88.092133 152.056248 
L 137.542579 152.056248 
L 137.542579 121.926148 
L 88.092133 121.926148 
z
" clip-path="url(#pfc6b028c09)" style="fill: #9f1853; stroke: #9f1853; stroke-width: 1.5; stroke-linejoin: miter"/>
   </g>
   <g id="patch_6">
    <path d="M 88.140804 198.410247 
L 137.493907 198.410247 
L 137.493907 168.280148 
L 88.140804 168.280148 
z
" clip-path="url(#pfc6b028c09)" style="fill: #9f1853; stroke: #9f1853; stroke-width: 1.5; stroke-linejoin: miter"/>
   </g>
   <g id="patch_7">
    <path d="M 88.092133 244.764247 
L 137.542579 244.764247 
L 137.542579 214.634147 
L 88.092133 214.634147 
z
" clip-path="url(#pfc6b028c09)" style="fill: #9f1853; stroke: #9f1853; stroke-width: 1.5; stroke-linejoin: miter"/>
   </g>
   <g id="patch_8">
    <path d="M 88.140804 291.118246 
L 137.493907 291.118246 
L 137.493907 260.988147 
L 88.140804 260.988147 
z
" clip-path="url(#pfc6b028c09)" style="fill: #9f1853; stroke: #9f1853; stroke-width: 1.5; stroke-linejoin: miter"/>
   </g>
   <g id="patch_9">
    <path d="M 167.283305 59.348249 
L 197.413405 59.348249 
L 197.413405 29.21815 
L 167.283305 29.21815 
z
" clip-path="url(#pfc6b028c09)" style="fill: #33b1ff; stroke: #33b1ff; stroke-width: 1.5; stroke-linejoin: miter"/>
   </g>
   <g id="patch_10">
    <path d="M 167.283305 105.702249 
L 197.413405 105.702249 
L 197.413405 75.572149 
L 167.283305 75.572149 
z
" clip-path="url(#pfc6b028c09)" style="fill: #33b1ff; stroke: #33b1ff; stroke-width: 1.5; stroke-linejoin: miter"/>
   </g>
   <g id="patch_11">
    <path d="M 167.283305 152.056248 
L 197.413405 152.056248 
L 197.413405 121.926148 
L 167.283305 121.926148 
z
" clip-path="url(#pfc6b028c09)" style="fill: #33b1ff; stroke: #33b1ff; stroke-width: 1.5; stroke-linejoin: miter"/>
   </g>
   <g id="patch_12">
    <path d="M 167.283305 198.410247 
L 197.413405 198.410247 
L 197.413405 168.280148 
L 167.283305 168.280148 
z
" clip-path="url(#pfc6b028c09)" style="fill: #33b1ff; stroke: #33b1ff; stroke-width: 1.5; stroke-linejoin: miter"/>
   </g>
   <g id="patch_13">
    <path d="M 167.283305 244.764247 
L 197.413405 244.764247 
L 197.413405 214.634147 
L 167.283305 214.634147 
z
" clip-path="url(#pfc6b028c09)" style="fill: #33b1ff; stroke: #33b1ff; stroke-width: 1.5; stroke-linejoin: miter"/>
   </g>
   <g id="patch_14">
    <path d="M 167.283305 291.118246 
L 197.413405 291.118246 
L 197.413405 260.988147 
L 167.283305 260.988147 
z
" clip-path="url(#pfc6b028c09)" style="fill: #33b1ff; stroke: #33b1ff; stroke-width: 1.5; stroke-linejoin: miter"/>
   </g>
   <g id="patch_15">
    <path d="M 228.702354 48.802714 
C 229.900944 48.802714 231.050603 48.32651 231.898134 47.478979 
C 232.745665 46.631448 233.221869 45.481789 233.221869 44.2832 
C 233.221869 43.08461 232.745665 41.934951 231.898134 41.08742 
C 231.050603 40.239889 229.900944 39.763685 228.702354 39.763685 
C 227.503765 39.763685 226.354105 40.239889 225.506575 41.08742 
C 224.659044 41.934951 224.182839 43.08461 224.182839 44.2832 
C 224.182839 45.481789 224.659044 46.631448 225.506575 47.478979 
C 226.354105 48.32651 227.503765 48.802714 228.702354 48.802714 
z
" clip-path="url(#pfc6b028c09)" style="fill: #002d9c; stroke: #002d9c; stroke-width: 1.5; stroke-linejoin: miter"/>
   </g>
   <g id="patch_16">
    <path d="M 228.702354 101.182734 
C 231.499063 101.182734 234.181602 100.07159 236.159173 98.094018 
C 238.136745 96.116447 239.247889 93.433907 239.247889 90.637199 
C 239.247889 87.84049 238.136745 85.157951 236.159173 83.18038 
C 234.181602 81.202808 231.499063 80.091664 228.702354 80.091664 
C 225.905646 80.091664 223.223107 81.202808 221.245535 83.18038 
C 219.267964 85.157951 218.156819 87.84049 218.156819 90.637199 
C 218.156819 93.433907 219.267964 96.116447 221.245535 98.094018 
C 223.223107 100.07159 225.905646 101.182734 228.702354 101.182734 
z
" clip-path="url(#pfc6b028c09)" style="fill: #002d9c; stroke: #002d9c; stroke-width: 2; stroke-linejoin: miter"/>
   </g>
   <g id="patch_17">
    <path d="M 275.056354 95.156714 
C 276.254943 95.156714 277.404603 94.680509 278.252133 93.832979 
C 279.099664 92.985448 279.575869 91.835788 279.575869 90.637199 
C 279.575869 89.43861 279.099664 88.28895 278.252133 87.441419 
C 277.404603 86.593889 276.254943 86.117684 275.056354 86.117684 
C 273.857764 86.117684 272.708105 86.593889 271.860574 87.441419 
C 271.013043 88.28895 270.536839 89.43861 270.536839 90.637199 
C 270.536839 91.835788 271.013043 92.985448 271.860574 93.832979 
C 272.708105 94.680509 273.857764 95.156714 275.056354 95.156714 
z
" clip-path="url(#pfc6b028c09)" style="fill: #002d9c; stroke: #002d9c; stroke-width: 1.5; stroke-linejoin: miter"/>
   </g>
   <g id="patch_18">
    <path d="M 275.056354 147.536733 
C 277.853062 147.536733 280.535601 146.425589 282.513173 144.448017 
C 284.490744 142.470446 285.601889 139.787907 285.601889 136.991198 
C 285.601889 134.19449 284.490744 131.511951 282.513173 129.534379 
C 280.535601 127.556807 277.853062 126.445663 275.056354 126.445663 
C 272.259645 126.445663 269.577106 127.556807 267.599534 129.534379 
C 265.621963 131.511951 264.510819 134.19449 264.510819 136.991198 
C 264.510819 139.787907 265.621963 142.470446 267.599534 144.448017 
C 269.577106 146.425589 272.259645 147.536733 275.056354 147.536733 
z
" clip-path="url(#pfc6b028c09)" style="fill: #002d9c; stroke: #002d9c; stroke-width: 2; stroke-linejoin: miter"/>
   </g>
   <g id="patch_19">
    <path d="M 321.410353 141.510713 
C 322.608942 141.510713 323.758602 141.034509 324.606133 140.186978 
C 325.453663 139.339447 325.929868 138.189788 325.929868 136.991198 
C 325.929868 135.792609 325.453663 134.642949 324.606133 133.795419 
C 323.758602 132.947888 322.608942 132.471683 321.410353 132.471683 
C 320.211764 132.471683 319.062104 132.947888 318.214573 133.795419 
C 317.367043 134.642949 316.890838 135.792609 316.890838 136.991198 
C 316.890838 138.189788 317.367043 139.339447 318.214573 140.186978 
C 319.062104 141.034509 320.211764 141.510713 321.410353 141.510713 
z
" clip-path="url(#pfc6b028c09)" style="fill: #002d9c; stroke: #002d9c; stroke-width: 1.5; stroke-linejoin: miter"/>
   </g>
   <g id="patch_20">
    <path d="M 321.410353 193.890733 
C 324.207062 193.890733 326.889601 192.779588 328.867172 190.802017 
C 330.844744 188.824445 331.955888 186.141906 331.955888 183.345198 
C 331.955888 180.548489 330.844744 177.86595 328.867172 175.888378 
C 326.889601 173.910807 324.207062 172.799663 321.410353 172.799663 
C 318.613645 172.799663 315.931105 173.910807 313.953534 175.888378 
C 311.975962 177.86595 310.864818 180.548489 310.864818 183.345198 
C 310.864818 186.141906 311.975962 188.824445 313.953534 190.802017 
C 315.931105 192.779588 318.613645 193.890733 321.410353 193.890733 
z
" clip-path="url(#pfc6b028c09)" style="fill: #002d9c; stroke: #002d9c; stroke-width: 2; stroke-linejoin: miter"/>
   </g>
   <g id="patch_21">
    <path d="M 306.345303 105.702249 
L 336.475403 105.702249 
L 336.475403 75.572149 
L 306.345303 75.572149 
z
" clip-path="url(#pfc6b028c09)" style="fill: #9f1853; stroke: #9f1853; stroke-width: 1.5; stroke-linejoin: miter"/>
   </g>
   <g id="patch_22">
    <path d="M 367.764352 187.864713 
C 368.962942 187.864713 370.112601 187.388508 370.960132 186.540977 
C 371.807663 185.693447 372.283867 184.543787 372.283867 183.345198 
C 372.283867 182.146608 371.807663 180.996949 370.960132 180.149418 
C 370.112601 179.301887 368.962942 178.825683 367.764352 178.825683 
C 366.565763 178.825683 365.416103 179.301887 364.568573 180.149418 
C 363.721042 180.996949 363.244837 182.146608 363.244837 183.345198 
C 363.244837 184.543787 363.721042 185.693447 364.568573 186.540977 
C 365.416103 187.388508 366.565763 187.864713 367.764352 187.864713 
z
" clip-path="url(#pfc6b028c09)" style="fill: #002d9c; stroke: #002d9c; stroke-width: 1.5; stroke-linejoin: miter"/>
   </g>
   <g id="patch_23">
    <path d="M 367.764352 240.244732 
C 370.561061 240.244732 373.2436 239.133588 375.221172 237.156016 
C 377.198743 235.178445 378.309887 232.495906 378.309887 229.699197 
C 378.309887 226.902489 377.198743 224.219949 375.221172 222.242378 
C 373.2436 220.264806 370.561061 219.153662 367.764352 219.153662 
C 364.967644 219.153662 362.285105 220.264806 360.307533 222.242378 
C 358.329962 224.219949 357.218818 226.902489 357.218818 229.699197 
C 357.218818 232.495906 358.329962 235.178445 360.307533 237.156016 
C 362.285105 239.133588 364.967644 240.244732 367.764352 240.244732 
z
" clip-path="url(#pfc6b028c09)" style="fill: #002d9c; stroke: #002d9c; stroke-width: 2; stroke-linejoin: miter"/>
   </g>
   <g id="patch_24">
    <path d="M 352.699303 152.056248 
L 382.829402 152.056248 
L 382.829402 121.926148 
L 352.699303 121.926148 
z
" clip-path="url(#pfc6b028c09)" style="fill: #9f1853; stroke: #9f1853; stroke-width: 1.5; stroke-linejoin: miter"/>
   </g>
   <g id="patch_25">
    <path d="M 352.699303 105.702249 
L 382.829402 105.702249 
L 382.829402 75.572149 
L 352.699303 75.572149 
z
" clip-path="url(#pfc6b028c09)" style="fill: #33b1ff; stroke: #33b1ff; stroke-width: 1.5; stroke-linejoin: miter"/>
   </g>
   <g id="patch_26">
    <path d="M 414.118352 234.218712 
C 415.316941 234.218712 416.466601 233.742507 417.314131 232.894977 
C 418.161662 232.047446 418.637867 230.897786 418.637867 229.699197 
C 418.637867 228.500608 418.161662 227.350948 417.314131 226.503417 
C 416.466601 225.655887 415.316941 225.179682 414.118352 225.179682 
C 412.919762 225.179682 411.770103 225.655887 410.922572 226.503417 
C 410.075041 227.350948 409.598837 228.500608 409.598837 229.699197 
C 409.598837 230.897786 410.075041 232.047446 410.922572 232.894977 
C 411.770103 233.742507 412.919762 234.218712 414.118352 234.218712 
z
" clip-path="url(#pfc6b028c09)" style="fill: #002d9c; stroke: #002d9c; stroke-width: 1.5; stroke-linejoin: miter"/>
   </g>
   <g id="patch_27">
    <path d="M 414.118352 286.598731 
C 416.91506 286.598731 419.597599 285.487587 421.575171 283.510016 
C 423.552743 281.532444 424.663887 278.849905 424.663887 276.053196 
C 424.663887 273.256488 423.552743 270.573949 421.575171 268.596377 
C 419.597599 266.618806 416.91506 265.507662 414.118352 265.507662 
C 411.321643 265.507662 408.639104 266.618806 406.661533 268.596377 
C 404.683961 270.573949 403.572817 273.256488 403.572817 276.053196 
C 403.572817 278.849905 404.683961 281.532444 406.661533 283.510016 
C 408.639104 285.487587 411.321643 286.598731 414.118352 286.598731 
z
" clip-path="url(#pfc6b028c09)" style="fill: #002d9c; stroke: #002d9c; stroke-width: 2; stroke-linejoin: miter"/>
   </g>
   <g id="patch_28">
    <path d="M 399.053302 198.410247 
L 429.183402 198.410247 
L 429.183402 168.280148 
L 399.053302 168.280148 
z
" clip-path="url(#pfc6b028c09)" style="fill: #9f1853; stroke: #9f1853; stroke-width: 1.5; stroke-linejoin: miter"/>
   </g>
   <g id="patch_29">
    <path d="M 399.053302 152.056248 
L 429.183402 152.056248 
L 429.183402 121.926148 
L 399.053302 121.926148 
z
" clip-path="url(#pfc6b028c09)" style="fill: #33b1ff; stroke: #33b1ff; stroke-width: 1.5; stroke-linejoin: miter"/>
   </g>
   <g id="patch_30">
    <path d="M 460.472351 280.572711 
C 461.670941 280.572711 462.8206 280.096507 463.668131 279.248976 
C 464.515662 278.401445 464.991866 277.251786 464.991866 276.053196 
C 464.991866 274.854607 464.515662 273.704947 463.668131 272.857417 
C 462.8206 272.009886 461.670941 271.533681 460.472351 271.533681 
C 459.273762 271.533681 458.124102 272.009886 457.276572 272.857417 
C 456.429041 273.704947 455.952836 274.854607 455.952836 276.053196 
C 455.952836 277.251786 456.429041 278.401445 457.276572 279.248976 
C 458.124102 280.096507 459.273762 280.572711 460.472351 280.572711 
z
" clip-path="url(#pfc6b028c09)" style="fill: #002d9c; stroke: #002d9c; stroke-width: 1.5; stroke-linejoin: miter"/>
   </g>
   <g id="patch_31">
    <path d="M 460.472351 54.828734 
C 463.26906 54.828734 465.951599 53.71759 467.92917 51.740019 
C 469.906742 49.762447 471.017886 47.079908 471.017886 44.2832 
C 471.017886 41.486491 469.906742 38.803952 467.92917 36.82638 
C 465.951599 34.848809 463.26906 33.737665 460.472351 33.737665 
C 457.675643 33.737665 454.993104 34.848809 453.015532 36.82638 
C 451.03796 38.803952 449.926816 41.486491 449.926816 44.2832 
C 449.926816 47.079908 451.03796 49.762447 453.015532 51.740019 
C 454.993104 53.71759 457.675643 54.828734 460.472351 54.828734 
z
" clip-path="url(#pfc6b028c09)" style="fill: #002d9c; stroke: #002d9c; stroke-width: 2; stroke-linejoin: miter"/>
   </g>
   <g id="patch_32">
    <path d="M 491.761301 244.764247 
L 521.8914 244.764247 
L 521.8914 214.634147 
L 491.761301 214.634147 
z
" clip-path="url(#pfc6b028c09)" style="fill: #9f1853; stroke: #9f1853; stroke-width: 1.5; stroke-linejoin: miter"/>
   </g>
   <g id="patch_33">
    <path d="M 491.761301 198.410247 
L 521.8914 198.410247 
L 521.8914 168.280148 
L 491.761301 168.280148 
z
" clip-path="url(#pfc6b028c09)" style="fill: #33b1ff; stroke: #33b1ff; stroke-width: 1.5; stroke-linejoin: miter"/>
   </g>
   <g id="patch_34">
    <path d="M 491.761301 59.348249 
L 521.8914 59.348249 
L 521.8914 29.21815 
L 491.761301 29.21815 
z
" clip-path="url(#pfc6b028c09)" style="fill: #9f1853; stroke: #9f1853; stroke-width: 1.5; stroke-linejoin: miter"/>
   </g>
   <g id="patch_35">
    <path d="M 491.761301 291.118246 
L 521.8914 291.118246 
L 521.8914 260.988147 
L 491.761301 260.988147 
z
" clip-path="url(#pfc6b028c09)" style="fill: #9f1853; stroke: #9f1853; stroke-width: 1.5; stroke-linejoin: miter"/>
   </g>
   <g id="patch_36">
    <path d="M 538.1153 244.764247 
L 568.2454 244.764247 
L 568.2454 214.634147 
L 538.1153 214.634147 
z
" clip-path="url(#pfc6b028c09)" style="fill: #33b1ff; stroke: #33b1ff; stroke-width: 1.5; stroke-linejoin: miter"/>
   </g>
   <g id="patch_37">
    <path d="M 538.1153 59.348249 
L 568.2454 59.348249 
L 568.2454 29.21815 
L 538.1153 29.21815 
z
" clip-path="url(#pfc6b028c09)" style="fill: #33b1ff; stroke: #33b1ff; stroke-width: 1.5; stroke-linejoin: miter"/>
   </g>
   <g id="patch_38">
    <path d="M 538.1153 291.118246 
L 568.2454 291.118246 
L 568.2454 260.988147 
L 538.1153 260.988147 
z
" clip-path="url(#pfc6b028c09)" style="fill: #33b1ff; stroke: #33b1ff; stroke-width: 1.5; stroke-linejoin: miter"/>
   </g>
   <g id="patch_39">
    <path d="M 599.534349 48.802714 
C 600.732939 48.802714 601.882598 48.32651 602.730129 47.478979 
C 603.57766 46.631448 604.053864 45.481789 604.053864 44.2832 
C 604.053864 43.08461 603.57766 41.934951 602.730129 41.08742 
C 601.882598 40.239889 600.732939 39.763685 599.534349 39.763685 
C 598.33576 39.763685 597.1861 40.239889 596.33857 41.08742 
C 595.491039 41.934951 595.014834 43.08461 595.014834 44.2832 
C 595.014834 45.481789 595.491039 46.631448 596.33857 47.478979 
C 597.1861 48.32651 598.33576 48.802714 599.534349 48.802714 
z
" clip-path="url(#pfc6b028c09)" style="fill: #002d9c; stroke: #002d9c; stroke-width: 1.5; stroke-linejoin: miter"/>
   </g>
   <g id="patch_40">
    <path d="M 599.534349 101.182734 
C 602.331058 101.182734 605.013597 100.07159 606.991169 98.094018 
C 608.96874 96.116447 610.079884 93.433907 610.079884 90.637199 
C 610.079884 87.84049 608.96874 85.157951 606.991169 83.18038 
C 605.013597 81.202808 602.331058 80.091664 599.534349 80.091664 
C 596.737641 80.091664 594.055102 81.202808 592.07753 83.18038 
C 590.099959 85.157951 588.988814 87.84049 588.988814 90.637199 
C 588.988814 93.433907 590.099959 96.116447 592.07753 98.094018 
C 594.055102 100.07159 596.737641 101.182734 599.534349 101.182734 
z
" clip-path="url(#pfc6b028c09)" style="fill: #002d9c; stroke: #002d9c; stroke-width: 2; stroke-linejoin: miter"/>
   </g>
   <g id="patch_41">
    <path d="M 645.888349 95.156714 
C 647.086938 95.156714 648.236598 94.680509 649.084128 93.832979 
C 649.931659 92.985448 650.407864 91.835788 650.407864 90.637199 
C 650.407864 89.43861 649.931659 88.28895 649.084128 87.441419 
C 648.236598 86.593889 647.086938 86.117684 645.888349 86.117684 
C 644.689759 86.117684 643.5401 86.593889 642.692569 87.441419 
C 641.845038 88.28895 641.368834 89.43861 641.368834 90.637199 
C 641.368834 91.835788 641.845038 92.985448 642.692569 93.832979 
C 643.5401 94.680509 644.689759 95.156714 645.888349 95.156714 
z
" clip-path="url(#pfc6b028c09)" style="fill: #002d9c; stroke: #002d9c; stroke-width: 1.5; stroke-linejoin: miter"/>
   </g>
   <g id="patch_42">
    <path d="M 645.888349 147.536733 
C 648.685057 147.536733 651.367596 146.425589 653.345168 144.448017 
C 655.32274 142.470446 656.433884 139.787907 656.433884 136.991198 
C 656.433884 134.19449 655.32274 131.511951 653.345168 129.534379 
C 651.367596 127.556807 648.685057 126.445663 645.888349 126.445663 
C 643.09164 126.445663 640.409101 127.556807 638.43153 129.534379 
C 636.453958 131.511951 635.342814 134.19449 635.342814 136.991198 
C 635.342814 139.787907 636.453958 142.470446 638.43153 144.448017 
C 640.409101 146.425589 643.09164 147.536733 645.888349 147.536733 
z
" clip-path="url(#pfc6b028c09)" style="fill: #002d9c; stroke: #002d9c; stroke-width: 2; stroke-linejoin: miter"/>
   </g>
   <g id="patch_43">
    <path d="M 692.242348 141.510713 
C 693.440937 141.510713 694.590597 141.034509 695.438128 140.186978 
C 696.285658 139.339447 696.761863 138.189788 696.761863 136.991198 
C 696.761863 135.792609 696.285658 134.642949 695.438128 133.795419 
C 694.590597 132.947888 693.440937 132.471683 692.242348 132.471683 
C 691.043759 132.471683 689.894099 132.947888 689.046568 133.795419 
C 688.199038 134.642949 687.722833 135.792609 687.722833 136.991198 
C 687.722833 138.189788 688.199038 139.339447 689.046568 140.186978 
C 689.894099 141.034509 691.043759 141.510713 692.242348 141.510713 
z
" clip-path="url(#pfc6b028c09)" style="fill: #002d9c; stroke: #002d9c; stroke-width: 1.5; stroke-linejoin: miter"/>
   </g>
   <g id="patch_44">
    <path d="M 692.242348 193.890733 
C 695.039057 193.890733 697.721596 192.779588 699.699167 190.802017 
C 701.676739 188.824445 702.787883 186.141906 702.787883 183.345198 
C 702.787883 180.548489 701.676739 177.86595 699.699167 175.888378 
C 697.721596 173.910807 695.039057 172.799663 692.242348 172.799663 
C 689.44564 172.799663 686.7631 173.910807 684.785529 175.888378 
C 682.807957 177.86595 681.696813 180.548489 681.696813 183.345198 
C 681.696813 186.141906 682.807957 188.824445 684.785529 190.802017 
C 686.7631 192.779588 689.44564 193.890733 692.242348 193.890733 
z
" clip-path="url(#pfc6b028c09)" style="fill: #002d9c; stroke: #002d9c; stroke-width: 2; stroke-linejoin: miter"/>
   </g>
   <g id="patch_45">
    <path d="M 677.177298 105.702249 
L 707.307398 105.702249 
L 707.307398 75.572149 
L 677.177298 75.572149 
z
" clip-path="url(#pfc6b028c09)" style="fill: #9f1853; stroke: #9f1853; stroke-width: 1.5; stroke-linejoin: miter"/>
   </g>
   <g id="patch_46">
    <path d="M 738.596348 187.864713 
C 739.794937 187.864713 740.944596 187.388508 741.792127 186.540977 
C 742.639658 185.693447 743.115862 184.543787 743.115862 183.345198 
C 743.115862 182.146608 742.639658 180.996949 741.792127 180.149418 
C 740.944596 179.301887 739.794937 178.825683 738.596348 178.825683 
C 737.397758 178.825683 736.248099 179.301887 735.400568 180.149418 
C 734.553037 180.996949 734.076833 182.146608 734.076833 183.345198 
C 734.076833 184.543787 734.553037 185.693447 735.400568 186.540977 
C 736.248099 187.388508 737.397758 187.864713 738.596348 187.864713 
z
" clip-path="url(#pfc6b028c09)" style="fill: #002d9c; stroke: #002d9c; stroke-width: 1.5; stroke-linejoin: miter"/>
   </g>
   <g id="patch_47">
    <path d="M 738.596348 240.244732 
C 741.393056 240.244732 744.075595 239.133588 746.053167 237.156016 
C 748.030738 235.178445 749.141882 232.495906 749.141882 229.699197 
C 749.141882 226.902489 748.030738 224.219949 746.053167 222.242378 
C 744.075595 220.264806 741.393056 219.153662 738.596348 219.153662 
C 735.799639 219.153662 733.1171 220.264806 731.139528 222.242378 
C 729.161957 224.219949 728.050813 226.902489 728.050813 229.699197 
C 728.050813 232.495906 729.161957 235.178445 731.139528 237.156016 
C 733.1171 239.133588 735.799639 240.244732 738.596348 240.244732 
z
" clip-path="url(#pfc6b028c09)" style="fill: #002d9c; stroke: #002d9c; stroke-width: 2; stroke-linejoin: miter"/>
   </g>
   <g id="patch_48">
    <path d="M 723.531298 152.056248 
L 753.661397 152.056248 
L 753.661397 121.926148 
L 723.531298 121.926148 
z
" clip-path="url(#pfc6b028c09)" style="fill: #9f1853; stroke: #9f1853; stroke-width: 1.5; stroke-linejoin: miter"/>
   </g>
   <g id="patch_49">
    <path d="M 784.950347 234.218712 
C 786.148936 234.218712 787.298596 233.742507 788.146127 232.894977 
C 788.993657 232.047446 789.469862 230.897786 789.469862 229.699197 
C 789.469862 228.500608 788.993657 227.350948 788.146127 226.503417 
C 787.298596 225.655887 786.148936 225.179682 784.950347 225.179682 
C 783.751758 225.179682 782.602098 225.655887 781.754567 226.503417 
C 780.907037 227.350948 780.430832 228.500608 780.430832 229.699197 
C 780.430832 230.897786 780.907037 232.047446 781.754567 232.894977 
C 782.602098 233.742507 783.751758 234.218712 784.950347 234.218712 
z
" clip-path="url(#pfc6b028c09)" style="fill: #002d9c; stroke: #002d9c; stroke-width: 1.5; stroke-linejoin: miter"/>
   </g>
   <g id="patch_50">
    <path d="M 784.950347 286.598731 
C 787.747055 286.598731 790.429595 285.487587 792.407166 283.510016 
C 794.384738 281.532444 795.495882 278.849905 795.495882 276.053196 
C 795.495882 273.256488 794.384738 270.573949 792.407166 268.596377 
C 790.429595 266.618806 787.747055 265.507662 784.950347 265.507662 
C 782.153638 265.507662 779.471099 266.618806 777.493528 268.596377 
C 775.515956 270.573949 774.404812 273.256488 774.404812 276.053196 
C 774.404812 278.849905 775.515956 281.532444 777.493528 283.510016 
C 779.471099 285.487587 782.153638 286.598731 784.950347 286.598731 
z
" clip-path="url(#pfc6b028c09)" style="fill: #002d9c; stroke: #002d9c; stroke-width: 2; stroke-linejoin: miter"/>
   </g>
   <g id="patch_51">
    <path d="M 769.885297 198.410247 
L 800.015397 198.410247 
L 800.015397 168.280148 
L 769.885297 168.280148 
z
" clip-path="url(#pfc6b028c09)" style="fill: #9f1853; stroke: #9f1853; stroke-width: 1.5; stroke-linejoin: miter"/>
   </g>
   <g id="patch_52">
    <path d="M 831.304346 280.572711 
C 832.502936 280.572711 833.652595 280.096507 834.500126 279.248976 
C 835.347657 278.401445 835.823861 277.251786 835.823861 276.053196 
C 835.823861 274.854607 835.347657 273.704947 834.500126 272.857417 
C 833.652595 272.009886 832.502936 271.533681 831.304346 271.533681 
C 830.105757 271.533681 828.956097 272.009886 828.108567 272.857417 
C 827.261036 273.704947 826.784831 274.854607 826.784831 276.053196 
C 826.784831 277.251786 827.261036 278.401445 828.108567 279.248976 
C 828.956097 280.096507 830.105757 280.572711 831.304346 280.572711 
z
" clip-path="url(#pfc6b028c09)" style="fill: #002d9c; stroke: #002d9c; stroke-width: 1.5; stroke-linejoin: miter"/>
   </g>
   <g id="patch_53">
    <path d="M 831.304346 54.828734 
C 834.101055 54.828734 836.783594 53.71759 838.761165 51.740019 
C 840.738737 49.762447 841.849881 47.079908 841.849881 44.2832 
C 841.849881 41.486491 840.738737 38.803952 838.761165 36.82638 
C 836.783594 34.848809 834.101055 33.737665 831.304346 33.737665 
C 828.507638 33.737665 825.825099 34.848809 823.847527 36.82638 
C 821.869955 38.803952 820.758811 41.486491 820.758811 44.2832 
C 820.758811 47.079908 821.869955 49.762447 823.847527 51.740019 
C 825.825099 53.71759 828.507638 54.828734 831.304346 54.828734 
z
" clip-path="url(#pfc6b028c09)" style="fill: #002d9c; stroke: #002d9c; stroke-width: 2; stroke-linejoin: miter"/>
   </g>
   <g id="patch_54">
    <path d="M 862.593296 244.764247 
L 892.723395 244.764247 
L 892.723395 214.634147 
L 862.593296 214.634147 
z
" clip-path="url(#pfc6b028c09)" style="fill: #9f1853; stroke: #9f1853; stroke-width: 1.5; stroke-linejoin: miter"/>
   </g>
   <g id="patch_55">
    <path d="M 862.593296 59.348249 
L 892.723395 59.348249 
L 892.723395 29.21815 
L 862.593296 29.21815 
z
" clip-path="url(#pfc6b028c09)" style="fill: #9f1853; stroke: #9f1853; stroke-width: 1.5; stroke-linejoin: miter"/>
   </g>
   <g id="patch_56">
    <path d="M 862.593296 291.118246 
L 892.723395 291.118246 
L 892.723395 260.988147 
L 862.593296 260.988147 
z
" clip-path="url(#pfc6b028c09)" style="fill: #9f1853; stroke: #9f1853; stroke-width: 1.5; stroke-linejoin: miter"/>
   </g>
   <g id="line2d_19">
    <path d="M 228.702354 96.663219 
L 228.702354 84.611179 
" clip-path="url(#pfc6b028c09)" style="fill: none; stroke: #ffffff; stroke-width: 2; stroke-linecap: square"/>
   </g>
   <g id="line2d_20">
    <path d="M 222.676334 90.637199 
L 234.728374 90.637199 
" clip-path="url(#pfc6b028c09)" style="fill: none; stroke: #ffffff; stroke-width: 2; stroke-linecap: square"/>
   </g>
   <g id="line2d_21">
    <path d="M 275.056354 143.017218 
L 275.056354 130.965178 
" clip-path="url(#pfc6b028c09)" style="fill: none; stroke: #ffffff; stroke-width: 2; stroke-linecap: square"/>
   </g>
   <g id="line2d_22">
    <path d="M 269.030334 136.991198 
L 281.082374 136.991198 
" clip-path="url(#pfc6b028c09)" style="fill: none; stroke: #ffffff; stroke-width: 2; stroke-linecap: square"/>
   </g>
   <g id="line2d_23">
    <path d="M 321.410353 189.371218 
L 321.410353 177.319178 
" clip-path="url(#pfc6b028c09)" style="fill: none; stroke: #ffffff; stroke-width: 2; stroke-linecap: square"/>
   </g>
   <g id="line2d_24">
    <path d="M 315.384333 183.345198 
L 327.436373 183.345198 
" clip-path="url(#pfc6b028c09)" style="fill: none; stroke: #ffffff; stroke-width: 2; stroke-linecap: square"/>
   </g>
   <g id="line2d_25">
    <path d="M 367.764352 235.725217 
L 367.764352 223.673177 
" clip-path="url(#pfc6b028c09)" style="fill: none; stroke: #ffffff; stroke-width: 2; stroke-linecap: square"/>
   </g>
   <g id="line2d_26">
    <path d="M 361.738333 229.699197 
L 373.790372 229.699197 
" clip-path="url(#pfc6b028c09)" style="fill: none; stroke: #ffffff; stroke-width: 2; stroke-linecap: square"/>
   </g>
   <g id="line2d_27">
    <path d="M 414.118352 282.079216 
L 414.118352 270.027177 
" clip-path="url(#pfc6b028c09)" style="fill: none; stroke: #ffffff; stroke-width: 2; stroke-linecap: square"/>
   </g>
   <g id="line2d_28">
    <path d="M 408.092332 276.053196 
L 420.144372 276.053196 
" clip-path="url(#pfc6b028c09)" style="fill: none; stroke: #ffffff; stroke-width: 2; stroke-linecap: square"/>
   </g>
   <g id="line2d_29">
    <path d="M 460.472351 50.309219 
L 460.472351 38.25718 
" clip-path="url(#pfc6b028c09)" style="fill: none; stroke: #ffffff; stroke-width: 2; stroke-linecap: square"/>
   </g>
   <g id="line2d_30">
    <path d="M 454.446331 44.2832 
L 466.498371 44.2832 
" clip-path="url(#pfc6b028c09)" style="fill: none; stroke: #ffffff; stroke-width: 2; stroke-linecap: square"/>
   </g>
   <g id="line2d_31">
    <path d="M 599.534349 96.663219 
L 599.534349 84.611179 
" clip-path="url(#pfc6b028c09)" style="fill: none; stroke: #ffffff; stroke-width: 2; stroke-linecap: square"/>
   </g>
   <g id="line2d_32">
    <path d="M 593.508329 90.637199 
L 605.560369 90.637199 
" clip-path="url(#pfc6b028c09)" style="fill: none; stroke: #ffffff; stroke-width: 2; stroke-linecap: square"/>
   </g>
   <g id="line2d_33">
    <path d="M 645.888349 143.017218 
L 645.888349 130.965178 
" clip-path="url(#pfc6b028c09)" style="fill: none; stroke: #ffffff; stroke-width: 2; stroke-linecap: square"/>
   </g>
   <g id="line2d_34">
    <path d="M 639.862329 136.991198 
L 651.914369 136.991198 
" clip-path="url(#pfc6b028c09)" style="fill: none; stroke: #ffffff; stroke-width: 2; stroke-linecap: square"/>
   </g>
   <g id="line2d_35">
    <path d="M 692.242348 189.371218 
L 692.242348 177.319178 
" clip-path="url(#pfc6b028c09)" style="fill: none; stroke: #ffffff; stroke-width: 2; stroke-linecap: square"/>
   </g>
   <g id="line2d_36">
    <path d="M 686.216328 183.345198 
L 698.268368 183.345198 
" clip-path="url(#pfc6b028c09)" style="fill: none; stroke: #ffffff; stroke-width: 2; stroke-linecap: square"/>
   </g>
   <g id="line2d_37">
    <path d="M 738.596348 235.725217 
L 738.596348 223.673177 
" clip-path="url(#pfc6b028c09)" style="fill: none; stroke: #ffffff; stroke-width: 2; stroke-linecap: square"/>
   </g>
   <g id="line2d_38">
    <path d="M 732.570328 229.699197 
L 744.622367 229.699197 
" clip-path="url(#pfc6b028c09)" style="fill: none; stroke: #ffffff; stroke-width: 2; stroke-linecap: square"/>
   </g>
   <g id="line2d_39">
    <path d="M 784.950347 282.079216 
L 784.950347 270.027177 
" clip-path="url(#pfc6b028c09)" style="fill: none; stroke: #ffffff; stroke-width: 2; stroke-linecap: square"/>
   </g>
   <g id="line2d_40">
    <path d="M 778.924327 276.053196 
L 790.976367 276.053196 
" clip-path="url(#pfc6b028c09)" style="fill: none; stroke: #ffffff; stroke-width: 2; stroke-linecap: square"/>
   </g>
   <g id="line2d_41">
    <path d="M 831.304346 50.309219 
L 831.304346 38.25718 
" clip-path="url(#pfc6b028c09)" style="fill: none; stroke: #ffffff; stroke-width: 2; stroke-linecap: square"/>
   </g>
   <g id="line2d_42">
    <path d="M 825.278326 44.2832 
L 837.330366 44.2832 
" clip-path="url(#pfc6b028c09)" style="fill: none; stroke: #ffffff; stroke-width: 2; stroke-linecap: square"/>
   </g>
   <g id="text_1">
    <g clip-path="url(#pfc6b028c09)">
     <!-- ${q}_{0}$ -->
     <g transform="translate(37.300897 48.734176) scale(0.1625 -0.1625)">
      <defs>
       <path id="DejaVuSans-Oblique-71" d="M 2669 525 
Q 2438 222 2123 65 
Q 1809 -91 1428 -91 
Q 897 -91 595 267 
Q 294 625 294 1253 
Q 294 1759 480 2231 
Q 666 2703 1013 3078 
Q 1238 3322 1530 3453 
Q 1822 3584 2144 3584 
Q 2531 3584 2781 3431 
Q 3031 3278 3144 2969 
L 3244 3494 
L 3822 3494 
L 2888 -1319 
L 2309 -1319 
L 2669 525 
z
M 891 1338 
Q 891 875 1084 633 
Q 1278 391 1644 391 
Q 2188 391 2572 911 
Q 2956 1431 2956 2175 
Q 2956 2625 2757 2864 
Q 2559 3103 2188 3103 
Q 1916 3103 1684 2976 
Q 1453 2850 1281 2606 
Q 1100 2350 995 2006 
Q 891 1663 891 1338 
z
" transform="scale(0.015625)"/>
       <path id="DejaVuSans-30" d="M 2034 4250 
Q 1547 4250 1301 3770 
Q 1056 3291 1056 2328 
Q 1056 1369 1301 889 
Q 1547 409 2034 409 
Q 2525 409 2770 889 
Q 3016 1369 3016 2328 
Q 3016 3291 2770 3770 
Q 2525 4250 2034 4250 
z
M 2034 4750 
Q 2819 4750 3233 4129 
Q 3647 3509 3647 2328 
Q 3647 1150 3233 529 
Q 2819 -91 2034 -91 
Q 1250 -91 836 529 
Q 422 1150 422 2328 
Q 422 3509 836 4129 
Q 1250 4750 2034 4750 
z
" transform="scale(0.015625)"/>
      </defs>
      <use xlink:href="#DejaVuSans-Oblique-71"/>
      <use xlink:href="#DejaVuSans-30" transform="translate(63.476562 -16.40625) scale(0.7)"/>
     </g>
    </g>
   </g>
   <g id="text_2">
    <g clip-path="url(#pfc6b028c09)">
     <!-- ${q}_{1}$ -->
     <g transform="translate(37.300897 95.088175) scale(0.1625 -0.1625)">
      <defs>
       <path id="DejaVuSans-31" d="M 794 531 
L 1825 531 
L 1825 4091 
L 703 3866 
L 703 4441 
L 1819 4666 
L 2450 4666 
L 2450 531 
L 3481 531 
L 3481 0 
L 794 0 
L 794 531 
z
" transform="scale(0.015625)"/>
      </defs>
      <use xlink:href="#DejaVuSans-Oblique-71"/>
      <use xlink:href="#DejaVuSans-31" transform="translate(63.476562 -16.40625) scale(0.7)"/>
     </g>
    </g>
   </g>
   <g id="text_3">
    <g clip-path="url(#pfc6b028c09)">
     <!-- ${q}_{2}$ -->
     <g transform="translate(37.300897 141.442175) scale(0.1625 -0.1625)">
      <defs>
       <path id="DejaVuSans-32" d="M 1228 531 
L 3431 531 
L 3431 0 
L 469 0 
L 469 531 
Q 828 903 1448 1529 
Q 2069 2156 2228 2338 
Q 2531 2678 2651 2914 
Q 2772 3150 2772 3378 
Q 2772 3750 2511 3984 
Q 2250 4219 1831 4219 
Q 1534 4219 1204 4116 
Q 875 4013 500 3803 
L 500 4441 
Q 881 4594 1212 4672 
Q 1544 4750 1819 4750 
Q 2544 4750 2975 4387 
Q 3406 4025 3406 3419 
Q 3406 3131 3298 2873 
Q 3191 2616 2906 2266 
Q 2828 2175 2409 1742 
Q 1991 1309 1228 531 
z
" transform="scale(0.015625)"/>
      </defs>
      <use xlink:href="#DejaVuSans-Oblique-71"/>
      <use xlink:href="#DejaVuSans-32" transform="translate(63.476562 -16.40625) scale(0.7)"/>
     </g>
    </g>
   </g>
   <g id="text_4">
    <g clip-path="url(#pfc6b028c09)">
     <!-- ${q}_{3}$ -->
     <g transform="translate(37.300897 187.796174) scale(0.1625 -0.1625)">
      <defs>
       <path id="DejaVuSans-33" d="M 2597 2516 
Q 3050 2419 3304 2112 
Q 3559 1806 3559 1356 
Q 3559 666 3084 287 
Q 2609 -91 1734 -91 
Q 1441 -91 1130 -33 
Q 819 25 488 141 
L 488 750 
Q 750 597 1062 519 
Q 1375 441 1716 441 
Q 2309 441 2620 675 
Q 2931 909 2931 1356 
Q 2931 1769 2642 2001 
Q 2353 2234 1838 2234 
L 1294 2234 
L 1294 2753 
L 1863 2753 
Q 2328 2753 2575 2939 
Q 2822 3125 2822 3475 
Q 2822 3834 2567 4026 
Q 2313 4219 1838 4219 
Q 1578 4219 1281 4162 
Q 984 4106 628 3988 
L 628 4550 
Q 988 4650 1302 4700 
Q 1616 4750 1894 4750 
Q 2613 4750 3031 4423 
Q 3450 4097 3450 3541 
Q 3450 3153 3228 2886 
Q 3006 2619 2597 2516 
z
" transform="scale(0.015625)"/>
      </defs>
      <use xlink:href="#DejaVuSans-Oblique-71"/>
      <use xlink:href="#DejaVuSans-33" transform="translate(63.476562 -16.40625) scale(0.7)"/>
     </g>
    </g>
   </g>
   <g id="text_5">
    <g clip-path="url(#pfc6b028c09)">
     <!-- ${q}_{4}$ -->
     <g transform="translate(37.300897 234.150174) scale(0.1625 -0.1625)">
      <defs>
       <path id="DejaVuSans-34" d="M 2419 4116 
L 825 1625 
L 2419 1625 
L 2419 4116 
z
M 2253 4666 
L 3047 4666 
L 3047 1625 
L 3713 1625 
L 3713 1100 
L 3047 1100 
L 3047 0 
L 2419 0 
L 2419 1100 
L 313 1100 
L 313 1709 
L 2253 4666 
z
" transform="scale(0.015625)"/>
      </defs>
      <use xlink:href="#DejaVuSans-Oblique-71"/>
      <use xlink:href="#DejaVuSans-34" transform="translate(63.476562 -16.40625) scale(0.7)"/>
     </g>
    </g>
   </g>
   <g id="text_6">
    <g clip-path="url(#pfc6b028c09)">
     <!-- ${q}_{5}$ -->
     <g transform="translate(37.300897 280.504173) scale(0.1625 -0.1625)">
      <defs>
       <path id="DejaVuSans-35" d="M 691 4666 
L 3169 4666 
L 3169 4134 
L 1269 4134 
L 1269 2991 
Q 1406 3038 1543 3061 
Q 1681 3084 1819 3084 
Q 2600 3084 3056 2656 
Q 3513 2228 3513 1497 
Q 3513 744 3044 326 
Q 2575 -91 1722 -91 
Q 1428 -91 1123 -41 
Q 819 9 494 109 
L 494 744 
Q 775 591 1075 516 
Q 1375 441 1709 441 
Q 2250 441 2565 725 
Q 2881 1009 2881 1497 
Q 2881 1984 2565 2268 
Q 2250 2553 1709 2553 
Q 1456 2553 1204 2497 
Q 953 2441 691 2322 
L 691 4666 
z
" transform="scale(0.015625)"/>
      </defs>
      <use xlink:href="#DejaVuSans-Oblique-71"/>
      <use xlink:href="#DejaVuSans-35" transform="translate(63.476562 -16.40625) scale(0.7)"/>
     </g>
    </g>
   </g>
   <g id="text_7">
    <g clip-path="url(#pfc6b028c09)">
     <!-- theta_s0[0] -->
     <g style="fill: #ffffff" transform="translate(89.938606 55.418479) scale(0.08 -0.08)">
      <defs>
       <path id="DejaVuSans-74" d="M 1172 4494 
L 1172 3500 
L 2356 3500 
L 2356 3053 
L 1172 3053 
L 1172 1153 
Q 1172 725 1289 603 
Q 1406 481 1766 481 
L 2356 481 
L 2356 0 
L 1766 0 
Q 1100 0 847 248 
Q 594 497 594 1153 
L 594 3053 
L 172 3053 
L 172 3500 
L 594 3500 
L 594 4494 
L 1172 4494 
z
" transform="scale(0.015625)"/>
       <path id="DejaVuSans-68" d="M 3513 2113 
L 3513 0 
L 2938 0 
L 2938 2094 
Q 2938 2591 2744 2837 
Q 2550 3084 2163 3084 
Q 1697 3084 1428 2787 
Q 1159 2491 1159 1978 
L 1159 0 
L 581 0 
L 581 4863 
L 1159 4863 
L 1159 2956 
Q 1366 3272 1645 3428 
Q 1925 3584 2291 3584 
Q 2894 3584 3203 3211 
Q 3513 2838 3513 2113 
z
" transform="scale(0.015625)"/>
       <path id="DejaVuSans-65" d="M 3597 1894 
L 3597 1613 
L 953 1613 
Q 991 1019 1311 708 
Q 1631 397 2203 397 
Q 2534 397 2845 478 
Q 3156 559 3463 722 
L 3463 178 
Q 3153 47 2828 -22 
Q 2503 -91 2169 -91 
Q 1331 -91 842 396 
Q 353 884 353 1716 
Q 353 2575 817 3079 
Q 1281 3584 2069 3584 
Q 2775 3584 3186 3129 
Q 3597 2675 3597 1894 
z
M 3022 2063 
Q 3016 2534 2758 2815 
Q 2500 3097 2075 3097 
Q 1594 3097 1305 2825 
Q 1016 2553 972 2059 
L 3022 2063 
z
" transform="scale(0.015625)"/>
       <path id="DejaVuSans-61" d="M 2194 1759 
Q 1497 1759 1228 1600 
Q 959 1441 959 1056 
Q 959 750 1161 570 
Q 1363 391 1709 391 
Q 2188 391 2477 730 
Q 2766 1069 2766 1631 
L 2766 1759 
L 2194 1759 
z
M 3341 1997 
L 3341 0 
L 2766 0 
L 2766 531 
Q 2569 213 2275 61 
Q 1981 -91 1556 -91 
Q 1019 -91 701 211 
Q 384 513 384 1019 
Q 384 1609 779 1909 
Q 1175 2209 1959 2209 
L 2766 2209 
L 2766 2266 
Q 2766 2663 2505 2880 
Q 2244 3097 1772 3097 
Q 1472 3097 1187 3025 
Q 903 2953 641 2809 
L 641 3341 
Q 956 3463 1253 3523 
Q 1550 3584 1831 3584 
Q 2591 3584 2966 3190 
Q 3341 2797 3341 1997 
z
" transform="scale(0.015625)"/>
       <path id="DejaVuSans-5f" d="M 3263 -1063 
L 3263 -1509 
L -63 -1509 
L -63 -1063 
L 3263 -1063 
z
" transform="scale(0.015625)"/>
       <path id="DejaVuSans-73" d="M 2834 3397 
L 2834 2853 
Q 2591 2978 2328 3040 
Q 2066 3103 1784 3103 
Q 1356 3103 1142 2972 
Q 928 2841 928 2578 
Q 928 2378 1081 2264 
Q 1234 2150 1697 2047 
L 1894 2003 
Q 2506 1872 2764 1633 
Q 3022 1394 3022 966 
Q 3022 478 2636 193 
Q 2250 -91 1575 -91 
Q 1294 -91 989 -36 
Q 684 19 347 128 
L 347 722 
Q 666 556 975 473 
Q 1284 391 1588 391 
Q 1994 391 2212 530 
Q 2431 669 2431 922 
Q 2431 1156 2273 1281 
Q 2116 1406 1581 1522 
L 1381 1569 
Q 847 1681 609 1914 
Q 372 2147 372 2553 
Q 372 3047 722 3315 
Q 1072 3584 1716 3584 
Q 2034 3584 2315 3537 
Q 2597 3491 2834 3397 
z
" transform="scale(0.015625)"/>
       <path id="DejaVuSans-5b" d="M 550 4863 
L 1875 4863 
L 1875 4416 
L 1125 4416 
L 1125 -397 
L 1875 -397 
L 1875 -844 
L 550 -844 
L 550 4863 
z
" transform="scale(0.015625)"/>
       <path id="DejaVuSans-5d" d="M 1947 4863 
L 1947 -844 
L 622 -844 
L 622 -397 
L 1369 -397 
L 1369 4416 
L 622 4416 
L 622 4863 
L 1947 4863 
z
" transform="scale(0.015625)"/>
      </defs>
      <use xlink:href="#DejaVuSans-74"/>
      <use xlink:href="#DejaVuSans-68" transform="translate(39.208984 0)"/>
      <use xlink:href="#DejaVuSans-65" transform="translate(102.587891 0)"/>
      <use xlink:href="#DejaVuSans-74" transform="translate(164.111328 0)"/>
      <use xlink:href="#DejaVuSans-61" transform="translate(203.320312 0)"/>
      <use xlink:href="#DejaVuSans-5f" transform="translate(264.599609 0)"/>
      <use xlink:href="#DejaVuSans-73" transform="translate(314.599609 0)"/>
      <use xlink:href="#DejaVuSans-30" transform="translate(366.699219 0)"/>
      <use xlink:href="#DejaVuSans-5b" transform="translate(430.322266 0)"/>
      <use xlink:href="#DejaVuSans-30" transform="translate(469.335938 0)"/>
      <use xlink:href="#DejaVuSans-5d" transform="translate(532.958984 0)"/>
     </g>
    </g>
   </g>
   <g id="text_8">
    <g clip-path="url(#pfc6b028c09)">
     <!-- $\mathrm{R_Y}$ -->
     <g style="fill: #ffffff" transform="translate(105.277356 43.350872) scale(0.13 -0.13)">
      <defs>
       <path id="DejaVuSans-52" d="M 2841 2188 
Q 3044 2119 3236 1894 
Q 3428 1669 3622 1275 
L 4263 0 
L 3584 0 
L 2988 1197 
Q 2756 1666 2539 1819 
Q 2322 1972 1947 1972 
L 1259 1972 
L 1259 0 
L 628 0 
L 628 4666 
L 2053 4666 
Q 2853 4666 3247 4331 
Q 3641 3997 3641 3322 
Q 3641 2881 3436 2590 
Q 3231 2300 2841 2188 
z
M 1259 4147 
L 1259 2491 
L 2053 2491 
Q 2509 2491 2742 2702 
Q 2975 2913 2975 3322 
Q 2975 3731 2742 3939 
Q 2509 4147 2053 4147 
L 1259 4147 
z
" transform="scale(0.015625)"/>
       <path id="DejaVuSans-59" d="M -13 4666 
L 666 4666 
L 1959 2747 
L 3244 4666 
L 3922 4666 
L 2272 2222 
L 2272 0 
L 1638 0 
L 1638 2222 
L -13 4666 
z
" transform="scale(0.015625)"/>
      </defs>
      <use xlink:href="#DejaVuSans-52" transform="translate(0 0.09375)"/>
      <use xlink:href="#DejaVuSans-59" transform="translate(70.439453 -16.3125) scale(0.7)"/>
     </g>
    </g>
   </g>
   <g id="text_9">
    <g clip-path="url(#pfc6b028c09)">
     <!-- theta_s0[1] -->
     <g style="fill: #ffffff" transform="translate(89.938606 101.772479) scale(0.08 -0.08)">
      <use xlink:href="#DejaVuSans-74"/>
      <use xlink:href="#DejaVuSans-68" transform="translate(39.208984 0)"/>
      <use xlink:href="#DejaVuSans-65" transform="translate(102.587891 0)"/>
      <use xlink:href="#DejaVuSans-74" transform="translate(164.111328 0)"/>
      <use xlink:href="#DejaVuSans-61" transform="translate(203.320312 0)"/>
      <use xlink:href="#DejaVuSans-5f" transform="translate(264.599609 0)"/>
      <use xlink:href="#DejaVuSans-73" transform="translate(314.599609 0)"/>
      <use xlink:href="#DejaVuSans-30" transform="translate(366.699219 0)"/>
      <use xlink:href="#DejaVuSans-5b" transform="translate(430.322266 0)"/>
      <use xlink:href="#DejaVuSans-31" transform="translate(469.335938 0)"/>
      <use xlink:href="#DejaVuSans-5d" transform="translate(532.958984 0)"/>
     </g>
    </g>
   </g>
   <g id="text_10">
    <g clip-path="url(#pfc6b028c09)">
     <!-- $\mathrm{R_Y}$ -->
     <g style="fill: #ffffff" transform="translate(105.277356 89.704871) scale(0.13 -0.13)">
      <use xlink:href="#DejaVuSans-52" transform="translate(0 0.09375)"/>
      <use xlink:href="#DejaVuSans-59" transform="translate(70.439453 -16.3125) scale(0.7)"/>
     </g>
    </g>
   </g>
   <g id="text_11">
    <g clip-path="url(#pfc6b028c09)">
     <!-- theta_s0[2] -->
     <g style="fill: #ffffff" transform="translate(89.938606 148.126478) scale(0.08 -0.08)">
      <use xlink:href="#DejaVuSans-74"/>
      <use xlink:href="#DejaVuSans-68" transform="translate(39.208984 0)"/>
      <use xlink:href="#DejaVuSans-65" transform="translate(102.587891 0)"/>
      <use xlink:href="#DejaVuSans-74" transform="translate(164.111328 0)"/>
      <use xlink:href="#DejaVuSans-61" transform="translate(203.320312 0)"/>
      <use xlink:href="#DejaVuSans-5f" transform="translate(264.599609 0)"/>
      <use xlink:href="#DejaVuSans-73" transform="translate(314.599609 0)"/>
      <use xlink:href="#DejaVuSans-30" transform="translate(366.699219 0)"/>
      <use xlink:href="#DejaVuSans-5b" transform="translate(430.322266 0)"/>
      <use xlink:href="#DejaVuSans-32" transform="translate(469.335938 0)"/>
      <use xlink:href="#DejaVuSans-5d" transform="translate(532.958984 0)"/>
     </g>
    </g>
   </g>
   <g id="text_12">
    <g clip-path="url(#pfc6b028c09)">
     <!-- $\mathrm{R_Y}$ -->
     <g style="fill: #ffffff" transform="translate(105.277356 136.058871) scale(0.13 -0.13)">
      <use xlink:href="#DejaVuSans-52" transform="translate(0 0.09375)"/>
      <use xlink:href="#DejaVuSans-59" transform="translate(70.439453 -16.3125) scale(0.7)"/>
     </g>
    </g>
   </g>
   <g id="text_13">
    <g clip-path="url(#pfc6b028c09)">
     <!-- theta_s0[3] -->
     <g style="fill: #ffffff" transform="translate(89.938606 194.480478) scale(0.08 -0.08)">
      <use xlink:href="#DejaVuSans-74"/>
      <use xlink:href="#DejaVuSans-68" transform="translate(39.208984 0)"/>
      <use xlink:href="#DejaVuSans-65" transform="translate(102.587891 0)"/>
      <use xlink:href="#DejaVuSans-74" transform="translate(164.111328 0)"/>
      <use xlink:href="#DejaVuSans-61" transform="translate(203.320312 0)"/>
      <use xlink:href="#DejaVuSans-5f" transform="translate(264.599609 0)"/>
      <use xlink:href="#DejaVuSans-73" transform="translate(314.599609 0)"/>
      <use xlink:href="#DejaVuSans-30" transform="translate(366.699219 0)"/>
      <use xlink:href="#DejaVuSans-5b" transform="translate(430.322266 0)"/>
      <use xlink:href="#DejaVuSans-33" transform="translate(469.335938 0)"/>
      <use xlink:href="#DejaVuSans-5d" transform="translate(532.958984 0)"/>
     </g>
    </g>
   </g>
   <g id="text_14">
    <g clip-path="url(#pfc6b028c09)">
     <!-- $\mathrm{R_Y}$ -->
     <g style="fill: #ffffff" transform="translate(105.277356 182.41287) scale(0.13 -0.13)">
      <use xlink:href="#DejaVuSans-52" transform="translate(0 0.09375)"/>
      <use xlink:href="#DejaVuSans-59" transform="translate(70.439453 -16.3125) scale(0.7)"/>
     </g>
    </g>
   </g>
   <g id="text_15">
    <g clip-path="url(#pfc6b028c09)">
     <!-- theta_s0[4] -->
     <g style="fill: #ffffff" transform="translate(89.938606 240.834477) scale(0.08 -0.08)">
      <use xlink:href="#DejaVuSans-74"/>
      <use xlink:href="#DejaVuSans-68" transform="translate(39.208984 0)"/>
      <use xlink:href="#DejaVuSans-65" transform="translate(102.587891 0)"/>
      <use xlink:href="#DejaVuSans-74" transform="translate(164.111328 0)"/>
      <use xlink:href="#DejaVuSans-61" transform="translate(203.320312 0)"/>
      <use xlink:href="#DejaVuSans-5f" transform="translate(264.599609 0)"/>
      <use xlink:href="#DejaVuSans-73" transform="translate(314.599609 0)"/>
      <use xlink:href="#DejaVuSans-30" transform="translate(366.699219 0)"/>
      <use xlink:href="#DejaVuSans-5b" transform="translate(430.322266 0)"/>
      <use xlink:href="#DejaVuSans-34" transform="translate(469.335938 0)"/>
      <use xlink:href="#DejaVuSans-5d" transform="translate(532.958984 0)"/>
     </g>
    </g>
   </g>
   <g id="text_16">
    <g clip-path="url(#pfc6b028c09)">
     <!-- $\mathrm{R_Y}$ -->
     <g style="fill: #ffffff" transform="translate(105.277356 228.76687) scale(0.13 -0.13)">
      <use xlink:href="#DejaVuSans-52" transform="translate(0 0.09375)"/>
      <use xlink:href="#DejaVuSans-59" transform="translate(70.439453 -16.3125) scale(0.7)"/>
     </g>
    </g>
   </g>
   <g id="text_17">
    <g clip-path="url(#pfc6b028c09)">
     <!-- theta_s0[5] -->
     <g style="fill: #ffffff" transform="translate(89.938606 287.188476) scale(0.08 -0.08)">
      <use xlink:href="#DejaVuSans-74"/>
      <use xlink:href="#DejaVuSans-68" transform="translate(39.208984 0)"/>
      <use xlink:href="#DejaVuSans-65" transform="translate(102.587891 0)"/>
      <use xlink:href="#DejaVuSans-74" transform="translate(164.111328 0)"/>
      <use xlink:href="#DejaVuSans-61" transform="translate(203.320312 0)"/>
      <use xlink:href="#DejaVuSans-5f" transform="translate(264.599609 0)"/>
      <use xlink:href="#DejaVuSans-73" transform="translate(314.599609 0)"/>
      <use xlink:href="#DejaVuSans-30" transform="translate(366.699219 0)"/>
      <use xlink:href="#DejaVuSans-5b" transform="translate(430.322266 0)"/>
      <use xlink:href="#DejaVuSans-35" transform="translate(469.335938 0)"/>
      <use xlink:href="#DejaVuSans-5d" transform="translate(532.958984 0)"/>
     </g>
    </g>
   </g>
   <g id="text_18">
    <g clip-path="url(#pfc6b028c09)">
     <!-- $\mathrm{R_Y}$ -->
     <g style="fill: #ffffff" transform="translate(105.277356 275.120869) scale(0.13 -0.13)">
      <use xlink:href="#DejaVuSans-52" transform="translate(0 0.09375)"/>
      <use xlink:href="#DejaVuSans-59" transform="translate(70.439453 -16.3125) scale(0.7)"/>
     </g>
    </g>
   </g>
   <g id="text_19">
    <g clip-path="url(#pfc6b028c09)">
     <!-- 0.07 -->
     <g transform="translate(173.442105 55.529729) scale(0.08 -0.08)">
      <defs>
       <path id="DejaVuSans-2e" d="M 684 794 
L 1344 794 
L 1344 0 
L 684 0 
L 684 794 
z
" transform="scale(0.015625)"/>
       <path id="DejaVuSans-37" d="M 525 4666 
L 3525 4666 
L 3525 4397 
L 1831 0 
L 1172 0 
L 2766 4134 
L 525 4134 
L 525 4666 
z
" transform="scale(0.015625)"/>
      </defs>
      <use xlink:href="#DejaVuSans-30"/>
      <use xlink:href="#DejaVuSans-2e" transform="translate(63.623047 0)"/>
      <use xlink:href="#DejaVuSans-30" transform="translate(95.410156 0)"/>
      <use xlink:href="#DejaVuSans-37" transform="translate(159.033203 0)"/>
     </g>
    </g>
   </g>
   <g id="text_20">
    <g clip-path="url(#pfc6b028c09)">
     <!-- $\mathrm{R_Z}$ -->
     <g transform="translate(174.418355 43.350872) scale(0.13 -0.13)">
      <defs>
       <path id="DejaVuSans-5a" d="M 359 4666 
L 4025 4666 
L 4025 4184 
L 1075 531 
L 4097 531 
L 4097 0 
L 288 0 
L 288 481 
L 3238 4134 
L 359 4134 
L 359 4666 
z
" transform="scale(0.015625)"/>
      </defs>
      <use xlink:href="#DejaVuSans-52" transform="translate(0 0.09375)"/>
      <use xlink:href="#DejaVuSans-5a" transform="translate(70.439453 -16.3125) scale(0.7)"/>
     </g>
    </g>
   </g>
   <g id="text_21">
    <g clip-path="url(#pfc6b028c09)">
     <!-- 0.14 -->
     <g transform="translate(173.442105 101.883729) scale(0.08 -0.08)">
      <use xlink:href="#DejaVuSans-30"/>
      <use xlink:href="#DejaVuSans-2e" transform="translate(63.623047 0)"/>
      <use xlink:href="#DejaVuSans-31" transform="translate(95.410156 0)"/>
      <use xlink:href="#DejaVuSans-34" transform="translate(159.033203 0)"/>
     </g>
    </g>
   </g>
   <g id="text_22">
    <g clip-path="url(#pfc6b028c09)">
     <!-- $\mathrm{R_Z}$ -->
     <g transform="translate(174.418355 89.704871) scale(0.13 -0.13)">
      <use xlink:href="#DejaVuSans-52" transform="translate(0 0.09375)"/>
      <use xlink:href="#DejaVuSans-5a" transform="translate(70.439453 -16.3125) scale(0.7)"/>
     </g>
    </g>
   </g>
   <g id="text_23">
    <g clip-path="url(#pfc6b028c09)">
     <!-- 0.21 -->
     <g transform="translate(173.442105 148.237728) scale(0.08 -0.08)">
      <use xlink:href="#DejaVuSans-30"/>
      <use xlink:href="#DejaVuSans-2e" transform="translate(63.623047 0)"/>
      <use xlink:href="#DejaVuSans-32" transform="translate(95.410156 0)"/>
      <use xlink:href="#DejaVuSans-31" transform="translate(159.033203 0)"/>
     </g>
    </g>
   </g>
   <g id="text_24">
    <g clip-path="url(#pfc6b028c09)">
     <!-- $\mathrm{R_Z}$ -->
     <g transform="translate(174.418355 136.058871) scale(0.13 -0.13)">
      <use xlink:href="#DejaVuSans-52" transform="translate(0 0.09375)"/>
      <use xlink:href="#DejaVuSans-5a" transform="translate(70.439453 -16.3125) scale(0.7)"/>
     </g>
    </g>
   </g>
   <g id="text_25">
    <g clip-path="url(#pfc6b028c09)">
     <!-- 0.28 -->
     <g transform="translate(173.442105 194.591728) scale(0.08 -0.08)">
      <defs>
       <path id="DejaVuSans-38" d="M 2034 2216 
Q 1584 2216 1326 1975 
Q 1069 1734 1069 1313 
Q 1069 891 1326 650 
Q 1584 409 2034 409 
Q 2484 409 2743 651 
Q 3003 894 3003 1313 
Q 3003 1734 2745 1975 
Q 2488 2216 2034 2216 
z
M 1403 2484 
Q 997 2584 770 2862 
Q 544 3141 544 3541 
Q 544 4100 942 4425 
Q 1341 4750 2034 4750 
Q 2731 4750 3128 4425 
Q 3525 4100 3525 3541 
Q 3525 3141 3298 2862 
Q 3072 2584 2669 2484 
Q 3125 2378 3379 2068 
Q 3634 1759 3634 1313 
Q 3634 634 3220 271 
Q 2806 -91 2034 -91 
Q 1263 -91 848 271 
Q 434 634 434 1313 
Q 434 1759 690 2068 
Q 947 2378 1403 2484 
z
M 1172 3481 
Q 1172 3119 1398 2916 
Q 1625 2713 2034 2713 
Q 2441 2713 2670 2916 
Q 2900 3119 2900 3481 
Q 2900 3844 2670 4047 
Q 2441 4250 2034 4250 
Q 1625 4250 1398 4047 
Q 1172 3844 1172 3481 
z
" transform="scale(0.015625)"/>
      </defs>
      <use xlink:href="#DejaVuSans-30"/>
      <use xlink:href="#DejaVuSans-2e" transform="translate(63.623047 0)"/>
      <use xlink:href="#DejaVuSans-32" transform="translate(95.410156 0)"/>
      <use xlink:href="#DejaVuSans-38" transform="translate(159.033203 0)"/>
     </g>
    </g>
   </g>
   <g id="text_26">
    <g clip-path="url(#pfc6b028c09)">
     <!-- $\mathrm{R_Z}$ -->
     <g transform="translate(174.418355 182.41287) scale(0.13 -0.13)">
      <use xlink:href="#DejaVuSans-52" transform="translate(0 0.09375)"/>
      <use xlink:href="#DejaVuSans-5a" transform="translate(70.439453 -16.3125) scale(0.7)"/>
     </g>
    </g>
   </g>
   <g id="text_27">
    <g clip-path="url(#pfc6b028c09)">
     <!-- 0.35 -->
     <g transform="translate(173.442105 240.945727) scale(0.08 -0.08)">
      <use xlink:href="#DejaVuSans-30"/>
      <use xlink:href="#DejaVuSans-2e" transform="translate(63.623047 0)"/>
      <use xlink:href="#DejaVuSans-33" transform="translate(95.410156 0)"/>
      <use xlink:href="#DejaVuSans-35" transform="translate(159.033203 0)"/>
     </g>
    </g>
   </g>
   <g id="text_28">
    <g clip-path="url(#pfc6b028c09)">
     <!-- $\mathrm{R_Z}$ -->
     <g transform="translate(174.418355 228.76687) scale(0.13 -0.13)">
      <use xlink:href="#DejaVuSans-52" transform="translate(0 0.09375)"/>
      <use xlink:href="#DejaVuSans-5a" transform="translate(70.439453 -16.3125) scale(0.7)"/>
     </g>
    </g>
   </g>
   <g id="text_29">
    <g clip-path="url(#pfc6b028c09)">
     <!-- 0.42 -->
     <g transform="translate(173.442105 287.299726) scale(0.08 -0.08)">
      <use xlink:href="#DejaVuSans-30"/>
      <use xlink:href="#DejaVuSans-2e" transform="translate(63.623047 0)"/>
      <use xlink:href="#DejaVuSans-34" transform="translate(95.410156 0)"/>
      <use xlink:href="#DejaVuSans-32" transform="translate(159.033203 0)"/>
     </g>
    </g>
   </g>
   <g id="text_30">
    <g clip-path="url(#pfc6b028c09)">
     <!-- $\mathrm{R_Z}$ -->
     <g transform="translate(174.418355 275.120869) scale(0.13 -0.13)">
      <use xlink:href="#DejaVuSans-52" transform="translate(0 0.09375)"/>
      <use xlink:href="#DejaVuSans-5a" transform="translate(70.439453 -16.3125) scale(0.7)"/>
     </g>
    </g>
   </g>
   <g id="text_31">
    <g clip-path="url(#pfc6b028c09)">
     <!-- 0.26 -->
     <g style="fill: #ffffff" transform="translate(312.504103 101.883729) scale(0.08 -0.08)">
      <defs>
       <path id="DejaVuSans-36" d="M 2113 2584 
Q 1688 2584 1439 2293 
Q 1191 2003 1191 1497 
Q 1191 994 1439 701 
Q 1688 409 2113 409 
Q 2538 409 2786 701 
Q 3034 994 3034 1497 
Q 3034 2003 2786 2293 
Q 2538 2584 2113 2584 
z
M 3366 4563 
L 3366 3988 
Q 3128 4100 2886 4159 
Q 2644 4219 2406 4219 
Q 1781 4219 1451 3797 
Q 1122 3375 1075 2522 
Q 1259 2794 1537 2939 
Q 1816 3084 2150 3084 
Q 2853 3084 3261 2657 
Q 3669 2231 3669 1497 
Q 3669 778 3244 343 
Q 2819 -91 2113 -91 
Q 1303 -91 875 529 
Q 447 1150 447 2328 
Q 447 3434 972 4092 
Q 1497 4750 2381 4750 
Q 2619 4750 2861 4703 
Q 3103 4656 3366 4563 
z
" transform="scale(0.015625)"/>
      </defs>
      <use xlink:href="#DejaVuSans-30"/>
      <use xlink:href="#DejaVuSans-2e" transform="translate(63.623047 0)"/>
      <use xlink:href="#DejaVuSans-32" transform="translate(95.410156 0)"/>
      <use xlink:href="#DejaVuSans-36" transform="translate(159.033203 0)"/>
     </g>
    </g>
   </g>
   <g id="text_32">
    <g clip-path="url(#pfc6b028c09)">
     <!-- $\mathrm{R_X}$ -->
     <g style="fill: #ffffff" transform="translate(313.480353 89.704871) scale(0.13 -0.13)">
      <defs>
       <path id="DejaVuSans-58" d="M 403 4666 
L 1081 4666 
L 2241 2931 
L 3406 4666 
L 4084 4666 
L 2584 2425 
L 4184 0 
L 3506 0 
L 2194 1984 
L 872 0 
L 191 0 
L 1856 2491 
L 403 4666 
z
" transform="scale(0.015625)"/>
      </defs>
      <use xlink:href="#DejaVuSans-52" transform="translate(0 0.09375)"/>
      <use xlink:href="#DejaVuSans-58" transform="translate(70.439453 -16.3125) scale(0.7)"/>
     </g>
    </g>
   </g>
   <g id="text_33">
    <g clip-path="url(#pfc6b028c09)">
     <!-- 0.39 -->
     <g style="fill: #ffffff" transform="translate(358.858102 148.237728) scale(0.08 -0.08)">
      <defs>
       <path id="DejaVuSans-39" d="M 703 97 
L 703 672 
Q 941 559 1184 500 
Q 1428 441 1663 441 
Q 2288 441 2617 861 
Q 2947 1281 2994 2138 
Q 2813 1869 2534 1725 
Q 2256 1581 1919 1581 
Q 1219 1581 811 2004 
Q 403 2428 403 3163 
Q 403 3881 828 4315 
Q 1253 4750 1959 4750 
Q 2769 4750 3195 4129 
Q 3622 3509 3622 2328 
Q 3622 1225 3098 567 
Q 2575 -91 1691 -91 
Q 1453 -91 1209 -44 
Q 966 3 703 97 
z
M 1959 2075 
Q 2384 2075 2632 2365 
Q 2881 2656 2881 3163 
Q 2881 3666 2632 3958 
Q 2384 4250 1959 4250 
Q 1534 4250 1286 3958 
Q 1038 3666 1038 3163 
Q 1038 2656 1286 2365 
Q 1534 2075 1959 2075 
z
" transform="scale(0.015625)"/>
      </defs>
      <use xlink:href="#DejaVuSans-30"/>
      <use xlink:href="#DejaVuSans-2e" transform="translate(63.623047 0)"/>
      <use xlink:href="#DejaVuSans-33" transform="translate(95.410156 0)"/>
      <use xlink:href="#DejaVuSans-39" transform="translate(159.033203 0)"/>
     </g>
    </g>
   </g>
   <g id="text_34">
    <g clip-path="url(#pfc6b028c09)">
     <!-- $\mathrm{R_X}$ -->
     <g style="fill: #ffffff" transform="translate(359.834352 136.058871) scale(0.13 -0.13)">
      <use xlink:href="#DejaVuSans-52" transform="translate(0 0.09375)"/>
      <use xlink:href="#DejaVuSans-58" transform="translate(70.439453 -16.3125) scale(0.7)"/>
     </g>
    </g>
   </g>
   <g id="text_35">
    <g clip-path="url(#pfc6b028c09)">
     <!-- 0.14 -->
     <g transform="translate(358.858102 101.883729) scale(0.08 -0.08)">
      <use xlink:href="#DejaVuSans-30"/>
      <use xlink:href="#DejaVuSans-2e" transform="translate(63.623047 0)"/>
      <use xlink:href="#DejaVuSans-31" transform="translate(95.410156 0)"/>
      <use xlink:href="#DejaVuSans-34" transform="translate(159.033203 0)"/>
     </g>
    </g>
   </g>
   <g id="text_36">
    <g clip-path="url(#pfc6b028c09)">
     <!-- $\mathrm{R_Z}$ -->
     <g transform="translate(359.834352 89.704871) scale(0.13 -0.13)">
      <use xlink:href="#DejaVuSans-52" transform="translate(0 0.09375)"/>
      <use xlink:href="#DejaVuSans-5a" transform="translate(70.439453 -16.3125) scale(0.7)"/>
     </g>
    </g>
   </g>
   <g id="text_37">
    <g clip-path="url(#pfc6b028c09)">
     <!-- 0.52 -->
     <g style="fill: #ffffff" transform="translate(405.212102 194.591728) scale(0.08 -0.08)">
      <use xlink:href="#DejaVuSans-30"/>
      <use xlink:href="#DejaVuSans-2e" transform="translate(63.623047 0)"/>
      <use xlink:href="#DejaVuSans-35" transform="translate(95.410156 0)"/>
      <use xlink:href="#DejaVuSans-32" transform="translate(159.033203 0)"/>
     </g>
    </g>
   </g>
   <g id="text_38">
    <g clip-path="url(#pfc6b028c09)">
     <!-- $\mathrm{R_X}$ -->
     <g style="fill: #ffffff" transform="translate(406.188352 182.41287) scale(0.13 -0.13)">
      <use xlink:href="#DejaVuSans-52" transform="translate(0 0.09375)"/>
      <use xlink:href="#DejaVuSans-58" transform="translate(70.439453 -16.3125) scale(0.7)"/>
     </g>
    </g>
   </g>
   <g id="text_39">
    <g clip-path="url(#pfc6b028c09)">
     <!-- 0.21 -->
     <g transform="translate(405.212102 148.237728) scale(0.08 -0.08)">
      <use xlink:href="#DejaVuSans-30"/>
      <use xlink:href="#DejaVuSans-2e" transform="translate(63.623047 0)"/>
      <use xlink:href="#DejaVuSans-32" transform="translate(95.410156 0)"/>
      <use xlink:href="#DejaVuSans-31" transform="translate(159.033203 0)"/>
     </g>
    </g>
   </g>
   <g id="text_40">
    <g clip-path="url(#pfc6b028c09)">
     <!-- $\mathrm{R_Z}$ -->
     <g transform="translate(406.188352 136.058871) scale(0.13 -0.13)">
      <use xlink:href="#DejaVuSans-52" transform="translate(0 0.09375)"/>
      <use xlink:href="#DejaVuSans-5a" transform="translate(70.439453 -16.3125) scale(0.7)"/>
     </g>
    </g>
   </g>
   <g id="text_41">
    <g clip-path="url(#pfc6b028c09)">
     <!-- 0.65 -->
     <g style="fill: #ffffff" transform="translate(497.920101 240.945727) scale(0.08 -0.08)">
      <use xlink:href="#DejaVuSans-30"/>
      <use xlink:href="#DejaVuSans-2e" transform="translate(63.623047 0)"/>
      <use xlink:href="#DejaVuSans-36" transform="translate(95.410156 0)"/>
      <use xlink:href="#DejaVuSans-35" transform="translate(159.033203 0)"/>
     </g>
    </g>
   </g>
   <g id="text_42">
    <g clip-path="url(#pfc6b028c09)">
     <!-- $\mathrm{R_X}$ -->
     <g style="fill: #ffffff" transform="translate(498.896351 228.76687) scale(0.13 -0.13)">
      <use xlink:href="#DejaVuSans-52" transform="translate(0 0.09375)"/>
      <use xlink:href="#DejaVuSans-58" transform="translate(70.439453 -16.3125) scale(0.7)"/>
     </g>
    </g>
   </g>
   <g id="text_43">
    <g clip-path="url(#pfc6b028c09)">
     <!-- 0.28 -->
     <g transform="translate(497.920101 194.591728) scale(0.08 -0.08)">
      <use xlink:href="#DejaVuSans-30"/>
      <use xlink:href="#DejaVuSans-2e" transform="translate(63.623047 0)"/>
      <use xlink:href="#DejaVuSans-32" transform="translate(95.410156 0)"/>
      <use xlink:href="#DejaVuSans-38" transform="translate(159.033203 0)"/>
     </g>
    </g>
   </g>
   <g id="text_44">
    <g clip-path="url(#pfc6b028c09)">
     <!-- $\mathrm{R_Z}$ -->
     <g transform="translate(498.896351 182.41287) scale(0.13 -0.13)">
      <use xlink:href="#DejaVuSans-52" transform="translate(0 0.09375)"/>
      <use xlink:href="#DejaVuSans-5a" transform="translate(70.439453 -16.3125) scale(0.7)"/>
     </g>
    </g>
   </g>
   <g id="text_45">
    <g clip-path="url(#pfc6b028c09)">
     <!-- 0.13 -->
     <g style="fill: #ffffff" transform="translate(497.920101 55.529729) scale(0.08 -0.08)">
      <use xlink:href="#DejaVuSans-30"/>
      <use xlink:href="#DejaVuSans-2e" transform="translate(63.623047 0)"/>
      <use xlink:href="#DejaVuSans-31" transform="translate(95.410156 0)"/>
      <use xlink:href="#DejaVuSans-33" transform="translate(159.033203 0)"/>
     </g>
    </g>
   </g>
   <g id="text_46">
    <g clip-path="url(#pfc6b028c09)">
     <!-- $\mathrm{R_X}$ -->
     <g style="fill: #ffffff" transform="translate(498.896351 43.350872) scale(0.13 -0.13)">
      <use xlink:href="#DejaVuSans-52" transform="translate(0 0.09375)"/>
      <use xlink:href="#DejaVuSans-58" transform="translate(70.439453 -16.3125) scale(0.7)"/>
     </g>
    </g>
   </g>
   <g id="text_47">
    <g clip-path="url(#pfc6b028c09)">
     <!-- 0.78 -->
     <g style="fill: #ffffff" transform="translate(497.920101 287.299726) scale(0.08 -0.08)">
      <use xlink:href="#DejaVuSans-30"/>
      <use xlink:href="#DejaVuSans-2e" transform="translate(63.623047 0)"/>
      <use xlink:href="#DejaVuSans-37" transform="translate(95.410156 0)"/>
      <use xlink:href="#DejaVuSans-38" transform="translate(159.033203 0)"/>
     </g>
    </g>
   </g>
   <g id="text_48">
    <g clip-path="url(#pfc6b028c09)">
     <!-- $\mathrm{R_X}$ -->
     <g style="fill: #ffffff" transform="translate(498.896351 275.120869) scale(0.13 -0.13)">
      <use xlink:href="#DejaVuSans-52" transform="translate(0 0.09375)"/>
      <use xlink:href="#DejaVuSans-58" transform="translate(70.439453 -16.3125) scale(0.7)"/>
     </g>
    </g>
   </g>
   <g id="text_49">
    <g clip-path="url(#pfc6b028c09)">
     <!-- 0.35 -->
     <g transform="translate(544.2741 240.945727) scale(0.08 -0.08)">
      <use xlink:href="#DejaVuSans-30"/>
      <use xlink:href="#DejaVuSans-2e" transform="translate(63.623047 0)"/>
      <use xlink:href="#DejaVuSans-33" transform="translate(95.410156 0)"/>
      <use xlink:href="#DejaVuSans-35" transform="translate(159.033203 0)"/>
     </g>
    </g>
   </g>
   <g id="text_50">
    <g clip-path="url(#pfc6b028c09)">
     <!-- $\mathrm{R_Z}$ -->
     <g transform="translate(545.25035 228.76687) scale(0.13 -0.13)">
      <use xlink:href="#DejaVuSans-52" transform="translate(0 0.09375)"/>
      <use xlink:href="#DejaVuSans-5a" transform="translate(70.439453 -16.3125) scale(0.7)"/>
     </g>
    </g>
   </g>
   <g id="text_51">
    <g clip-path="url(#pfc6b028c09)">
     <!-- 0.07 -->
     <g transform="translate(544.2741 55.529729) scale(0.08 -0.08)">
      <use xlink:href="#DejaVuSans-30"/>
      <use xlink:href="#DejaVuSans-2e" transform="translate(63.623047 0)"/>
      <use xlink:href="#DejaVuSans-30" transform="translate(95.410156 0)"/>
      <use xlink:href="#DejaVuSans-37" transform="translate(159.033203 0)"/>
     </g>
    </g>
   </g>
   <g id="text_52">
    <g clip-path="url(#pfc6b028c09)">
     <!-- $\mathrm{R_Z}$ -->
     <g transform="translate(545.25035 43.350872) scale(0.13 -0.13)">
      <use xlink:href="#DejaVuSans-52" transform="translate(0 0.09375)"/>
      <use xlink:href="#DejaVuSans-5a" transform="translate(70.439453 -16.3125) scale(0.7)"/>
     </g>
    </g>
   </g>
   <g id="text_53">
    <g clip-path="url(#pfc6b028c09)">
     <!-- 0.42 -->
     <g transform="translate(544.2741 287.299726) scale(0.08 -0.08)">
      <use xlink:href="#DejaVuSans-30"/>
      <use xlink:href="#DejaVuSans-2e" transform="translate(63.623047 0)"/>
      <use xlink:href="#DejaVuSans-34" transform="translate(95.410156 0)"/>
      <use xlink:href="#DejaVuSans-32" transform="translate(159.033203 0)"/>
     </g>
    </g>
   </g>
   <g id="text_54">
    <g clip-path="url(#pfc6b028c09)">
     <!-- $\mathrm{R_Z}$ -->
     <g transform="translate(545.25035 275.120869) scale(0.13 -0.13)">
      <use xlink:href="#DejaVuSans-52" transform="translate(0 0.09375)"/>
      <use xlink:href="#DejaVuSans-5a" transform="translate(70.439453 -16.3125) scale(0.7)"/>
     </g>
    </g>
   </g>
   <g id="text_55">
    <g clip-path="url(#pfc6b028c09)">
     <!-- 0.26 -->
     <g style="fill: #ffffff" transform="translate(683.336098 101.883729) scale(0.08 -0.08)">
      <use xlink:href="#DejaVuSans-30"/>
      <use xlink:href="#DejaVuSans-2e" transform="translate(63.623047 0)"/>
      <use xlink:href="#DejaVuSans-32" transform="translate(95.410156 0)"/>
      <use xlink:href="#DejaVuSans-36" transform="translate(159.033203 0)"/>
     </g>
    </g>
   </g>
   <g id="text_56">
    <g clip-path="url(#pfc6b028c09)">
     <!-- $\mathrm{R_X}$ -->
     <g style="fill: #ffffff" transform="translate(684.312348 89.704871) scale(0.13 -0.13)">
      <use xlink:href="#DejaVuSans-52" transform="translate(0 0.09375)"/>
      <use xlink:href="#DejaVuSans-58" transform="translate(70.439453 -16.3125) scale(0.7)"/>
     </g>
    </g>
   </g>
   <g id="text_57">
    <g clip-path="url(#pfc6b028c09)">
     <!-- 0.39 -->
     <g style="fill: #ffffff" transform="translate(729.690098 148.237728) scale(0.08 -0.08)">
      <use xlink:href="#DejaVuSans-30"/>
      <use xlink:href="#DejaVuSans-2e" transform="translate(63.623047 0)"/>
      <use xlink:href="#DejaVuSans-33" transform="translate(95.410156 0)"/>
      <use xlink:href="#DejaVuSans-39" transform="translate(159.033203 0)"/>
     </g>
    </g>
   </g>
   <g id="text_58">
    <g clip-path="url(#pfc6b028c09)">
     <!-- $\mathrm{R_X}$ -->
     <g style="fill: #ffffff" transform="translate(730.666348 136.058871) scale(0.13 -0.13)">
      <use xlink:href="#DejaVuSans-52" transform="translate(0 0.09375)"/>
      <use xlink:href="#DejaVuSans-58" transform="translate(70.439453 -16.3125) scale(0.7)"/>
     </g>
    </g>
   </g>
   <g id="text_59">
    <g clip-path="url(#pfc6b028c09)">
     <!-- 0.52 -->
     <g style="fill: #ffffff" transform="translate(776.044097 194.591728) scale(0.08 -0.08)">
      <use xlink:href="#DejaVuSans-30"/>
      <use xlink:href="#DejaVuSans-2e" transform="translate(63.623047 0)"/>
      <use xlink:href="#DejaVuSans-35" transform="translate(95.410156 0)"/>
      <use xlink:href="#DejaVuSans-32" transform="translate(159.033203 0)"/>
     </g>
    </g>
   </g>
   <g id="text_60">
    <g clip-path="url(#pfc6b028c09)">
     <!-- $\mathrm{R_X}$ -->
     <g style="fill: #ffffff" transform="translate(777.020347 182.41287) scale(0.13 -0.13)">
      <use xlink:href="#DejaVuSans-52" transform="translate(0 0.09375)"/>
      <use xlink:href="#DejaVuSans-58" transform="translate(70.439453 -16.3125) scale(0.7)"/>
     </g>
    </g>
   </g>
   <g id="text_61">
    <g clip-path="url(#pfc6b028c09)">
     <!-- 0.65 -->
     <g style="fill: #ffffff" transform="translate(868.752096 240.945727) scale(0.08 -0.08)">
      <use xlink:href="#DejaVuSans-30"/>
      <use xlink:href="#DejaVuSans-2e" transform="translate(63.623047 0)"/>
      <use xlink:href="#DejaVuSans-36" transform="translate(95.410156 0)"/>
      <use xlink:href="#DejaVuSans-35" transform="translate(159.033203 0)"/>
     </g>
    </g>
   </g>
   <g id="text_62">
    <g clip-path="url(#pfc6b028c09)">
     <!-- $\mathrm{R_X}$ -->
     <g style="fill: #ffffff" transform="translate(869.728346 228.76687) scale(0.13 -0.13)">
      <use xlink:href="#DejaVuSans-52" transform="translate(0 0.09375)"/>
      <use xlink:href="#DejaVuSans-58" transform="translate(70.439453 -16.3125) scale(0.7)"/>
     </g>
    </g>
   </g>
   <g id="text_63">
    <g clip-path="url(#pfc6b028c09)">
     <!-- 0.13 -->
     <g style="fill: #ffffff" transform="translate(868.752096 55.529729) scale(0.08 -0.08)">
      <use xlink:href="#DejaVuSans-30"/>
      <use xlink:href="#DejaVuSans-2e" transform="translate(63.623047 0)"/>
      <use xlink:href="#DejaVuSans-31" transform="translate(95.410156 0)"/>
      <use xlink:href="#DejaVuSans-33" transform="translate(159.033203 0)"/>
     </g>
    </g>
   </g>
   <g id="text_64">
    <g clip-path="url(#pfc6b028c09)">
     <!-- $\mathrm{R_X}$ -->
     <g style="fill: #ffffff" transform="translate(869.728346 43.350872) scale(0.13 -0.13)">
      <use xlink:href="#DejaVuSans-52" transform="translate(0 0.09375)"/>
      <use xlink:href="#DejaVuSans-58" transform="translate(70.439453 -16.3125) scale(0.7)"/>
     </g>
    </g>
   </g>
   <g id="text_65">
    <g clip-path="url(#pfc6b028c09)">
     <!-- 0.78 -->
     <g style="fill: #ffffff" transform="translate(868.752096 287.299726) scale(0.08 -0.08)">
      <use xlink:href="#DejaVuSans-30"/>
      <use xlink:href="#DejaVuSans-2e" transform="translate(63.623047 0)"/>
      <use xlink:href="#DejaVuSans-37" transform="translate(95.410156 0)"/>
      <use xlink:href="#DejaVuSans-38" transform="translate(159.033203 0)"/>
     </g>
    </g>
   </g>
   <g id="text_66">
    <g clip-path="url(#pfc6b028c09)">
     <!-- $\mathrm{R_X}$ -->
     <g style="fill: #ffffff" transform="translate(869.728346 275.120869) scale(0.13 -0.13)">
      <use xlink:href="#DejaVuSans-52" transform="translate(0 0.09375)"/>
      <use xlink:href="#DejaVuSans-58" transform="translate(70.439453 -16.3125) scale(0.7)"/>
     </g>
    </g>
   </g>
  </g>
 </g>
 <defs>
  <clipPath id="pfc6b028c09">
   <rect x="7.2" y="7.2" width="901.051985" height="296.665596"/>
  </clipPath>
 </defs>
</svg>
